<svg width="130" height="13" viewBox="0 0 130 13" fill="none" xmlns="http://www.w3.org/2000/svg">
<path d="M117.328 11.0938C112.822 10.3734 116.374 10.9028 107.849 9.64843C106.749 9.48711 100.401 8.6768 100.311 8.66753C89.2073 7.46597 84.5769 6.95234 68.2524 6.3358C57.5905 6.2162 60.5724 6.23382 55.5005 6.28295C48.7851 6.34878 50.5813 6.28666 45.1415 6.70665C39.865 7.11459 41.3633 6.98757 39.865 7.15353C29.7378 8.27535 33.7221 7.7747 23.6263 9.20804C23.6172 9.20897 16.3919 10.4022 11.6863 11.4165L6.7828 12.4725C6.63015 12.5049 6.50721 12.3223 6.43131 12.2045C5.9676 11.4804 5.8067 10.0388 6.0039 9.65399C4.0179 9.81439 2.96426 9.93584 1.56655 9.86352C1.32397 9.85054 1.08139 9.79677 0.841287 9.75783C0.21174 9.50751 -0.251963 7.04042 0.150683 6.64546C0.294591 6.49245 0.47751 6.39389 0.673791 6.36361C1.20394 5.91962 1.80673 5.59733 2.44774 5.41516C2.84214 5.31132 3.04677 5.31411 4.659 5.20007C6.81663 5.04802 6.31579 4.95994 10.4644 4.23493C20.7096 2.44093 31.996 0.87316 42.3526 0.329863C59.1656 -0.549982 76.8936 0.421649 93.6537 2.1628C114.419 3.53865 127.017 6.02985 127.519 6.07435C127.659 6.08868 127.793 6.14085 127.911 6.2264C128.068 6.34044 128.163 6.55275 128.252 6.7289C128.711 7.63749 128.786 8.84183 128.643 9.24698C128.845 9.36658 129.045 9.49267 129.248 9.60949C129.653 9.8422 130.224 11.8225 129.908 12.5856C129.838 12.708 129.776 12.8081 129.685 12.9119C129.623 12.9824 129.519 13 129.427 13C128.814 13 118.814 11.3367 117.328 11.0938Z" fill="#AF3CC2"/>
</svg>
